<svg xmlns="http://www.w3.org/2000/svg" viewBox="0 0 329.37 92.32">
  <defs>
    <style>
      .cls-1 {
        fill: #fdba5d;
      }

      .cls-2 {
        fill: #533d2c;
      }
    </style>
  </defs>
  <title>logo2</title>
  <g id="Layer_2" data-name="Layer 2">
    <g id="Layer_1-2" data-name="Layer 1">
      <g>
        <path class="cls-1" d="M65.72,22A19.62,19.62,0,0,0,45.65,42a19.56,19.56,0,0,0,5.74,14.36,19.37,19.37,0,0,0,14.33,5.78h7a5.08,5.08,0,0,0,3.82-1.49A5.3,5.3,0,0,0,78,56.82a5,5,0,0,0-5.27-5.27h-7A9,9,0,0,1,59,48.76,9.25,9.25,0,0,1,56.27,42a9.42,9.42,0,0,1,9.45-9.45,14,14,0,0,1,2,.16L62.1,38.33A5.16,5.16,0,0,0,60.37,42,5.31,5.31,0,0,0,62,45.88a5.13,5.13,0,0,0,3.81,1.66,5.25,5.25,0,0,0,3.7-1.66l10.08-9.83a5.25,5.25,0,0,0,2.28-4.33,5.15,5.15,0,0,0-1.57-3.62A19.55,19.55,0,0,0,65.72,22Z"/>
        <path class="cls-1" d="M225.17,22a5,5,0,0,0-5.28,5.27V56.74A5,5,0,0,0,225.17,62,5.3,5.3,0,0,0,229,60.56a5.08,5.08,0,0,0,1.5-3.82V27.23C230.52,23.72,228.73,22,225.17,22Z"/>
        <path class="cls-1" d="M109.4,22A19.62,19.62,0,0,0,89.33,42a19.56,19.56,0,0,0,5.74,14.36,19.37,19.37,0,0,0,14.33,5.78,5.12,5.12,0,0,0,5.35-5.35,5.07,5.07,0,0,0-1.5-3.81,5.3,5.3,0,0,0-3.85-1.46,9,9,0,0,1-6.69-2.79A9.25,9.25,0,0,1,100,42a9.42,9.42,0,0,1,9.45-9.45,9.21,9.21,0,0,1,6.72,2.76,9,9,0,0,1,2.8,6.69V56.74A5,5,0,0,0,124.19,62a5.31,5.31,0,0,0,3.86-1.46,5.11,5.11,0,0,0,1.49-3.82V42a19.37,19.37,0,0,0-5.78-14.33A19.58,19.58,0,0,0,109.4,22Z"/>
        <path class="cls-1" d="M171.18,27.39a5,5,0,0,0-5.28-5.27h-18V17.94a5.12,5.12,0,0,0-5.35-5.35,5.09,5.09,0,0,0-3.82,1.5,5.27,5.27,0,0,0-1.45,3.85V45a17,17,0,1,0,33.92,0v-.71A5.11,5.11,0,0,0,165.9,39a5.26,5.26,0,0,0-3.81,1.49,5,5,0,0,0-1.54,3.78V45a6.2,6.2,0,0,1-1.81,4.52,6,6,0,0,1-4.48,1.85A6.32,6.32,0,0,1,147.88,45V32.74h18Q171.18,32.74,171.18,27.39Z"/>
        <path class="cls-1" d="M225.17,5.12A6.31,6.31,0,0,0,220.56,7a6.32,6.32,0,0,0-1.93,4.61,6.3,6.3,0,0,0,1.93,4.6,6.46,6.46,0,0,0,9.21,0,6.3,6.3,0,0,0,1.93-4.6A6.32,6.32,0,0,0,229.77,7,6.3,6.3,0,0,0,225.17,5.12Z"/>
        <path class="cls-1" d="M154.26,46.28a1.1,1.1,0,0,0,1-.55h-2.13A1.31,1.31,0,0,0,154.26,46.28Z"/>
        <path class="cls-1" d="M107.51,46a6.93,6.93,0,0,0,2.44.55,13.28,13.28,0,0,1,2.67.4,4.39,4.39,0,0,0-3.22-1.34A4.5,4.5,0,0,0,107.51,46Z"/>
        <path class="cls-1" d="M33.61,10.59A16.21,16.21,0,0,0,21.72,5.82,16.28,16.28,0,0,0,5.12,22.43V56.74a5.07,5.07,0,0,0,1.49,3.82A5.31,5.31,0,0,0,10.47,62a5.19,5.19,0,0,0,3.82-1.46,5.2,5.2,0,0,0,1.45-3.82V22.43a6,6,0,0,1,6-6A5.92,5.92,0,0,1,26,18.18a5.71,5.71,0,0,1,1.77,4.25A5.71,5.71,0,0,1,26,26.68a6.21,6.21,0,0,1-4.29,1.81A6.6,6.6,0,0,0,17.55,30a4.69,4.69,0,0,0-1.65,3.81,4.74,4.74,0,0,0,1.53,3.58A6.23,6.23,0,0,0,21.17,39a8.35,8.35,0,0,1,4.64,2,5.55,5.55,0,0,1,2,4.33,6,6,0,0,1-5.94,6,5.13,5.13,0,0,0-5.39,5.35A5.11,5.11,0,0,0,21.72,62a16.24,16.24,0,0,0,11.89-4.76,16,16,0,0,0,4.8-11.85A15.67,15.67,0,0,0,33.76,34a16,16,0,0,0,4.65-11.57A16,16,0,0,0,33.61,10.59Z"/>
        <path class="cls-1" d="M270.89,62.33V53.05A16.1,16.1,0,0,0,264,39.43a16.34,16.34,0,0,0,5.2-12.2,5.11,5.11,0,0,0-1.5-3.82A5.27,5.27,0,0,0,263.81,22q-5.28,0-5.28,5.43a6.25,6.25,0,0,1-6.37,6.22l-3.38-.08V11.25a5.14,5.14,0,0,0-5.36-5.35,5.07,5.07,0,0,0-3.81,1.5,5.26,5.26,0,0,0-1.46,3.85V56.74A5,5,0,0,0,243.42,62a5.31,5.31,0,0,0,3.86-1.46,5.08,5.08,0,0,0,1.5-3.82v-10h5.11a6.24,6.24,0,0,1,4.53,1.81,6,6,0,0,1,1.85,4.49v9.28a16.67,16.67,0,0,0,17,17h.31a5.31,5.31,0,0,0,3.86-1.45A5,5,0,0,0,282.86,75a10,10,0,0,1-9.33-7.44,7,7,0,0,1-.79-.67A6.18,6.18,0,0,1,270.89,62.33Z"/>
        <path class="cls-1" d="M319,68.71h-.32a6.32,6.32,0,0,1-6.37-6.38V38.88a16.32,16.32,0,0,0-4.88-12.08A16.53,16.53,0,0,0,295.29,22a17.18,17.18,0,0,0-6.38,1.18v-12a5.11,5.11,0,0,0-1.49-3.82,5.31,5.31,0,0,0-3.86-1.46,5.18,5.18,0,0,0-3.82,1.46,5.16,5.16,0,0,0-1.45,3.82V56.74A5,5,0,0,0,283.56,62a5.31,5.31,0,0,0,3.86-1.46,5.11,5.11,0,0,0,1.49-3.82V38.88a6.06,6.06,0,0,1,1.85-4.49,6.26,6.26,0,0,1,4.53-1.81,6.32,6.32,0,0,1,6.29,6.3l.08,23.45a16.67,16.67,0,0,0,17,17H319a5,5,0,0,0,5.27-5.27,5.31,5.31,0,0,0-1.46-3.86A5.1,5.1,0,0,0,319,68.71Z"/>
        <path class="cls-1" d="M212.42,62.33V38.88a16.32,16.32,0,0,0-4.88-12.08,17.6,17.6,0,0,0-24.24,0,16.28,16.28,0,0,0-4.88,12.08V56.74A5,5,0,0,0,183.69,62a5.32,5.32,0,0,0,3.86-1.46A5.11,5.11,0,0,0,189,56.74V38.88a6.06,6.06,0,0,1,1.85-4.49,6.25,6.25,0,0,1,4.53-1.81,6.32,6.32,0,0,1,6.29,6.3l.08,23.45a16.55,16.55,0,0,0,17,17h.32A5.29,5.29,0,0,0,223,77.88,4.85,4.85,0,0,0,224.38,75a9.93,9.93,0,0,1-6.65-2.92,9.71,9.71,0,0,1-2.58-4.45,6.77,6.77,0,0,1-.88-.74A6.14,6.14,0,0,1,212.42,62.33Z"/>
        <path class="cls-2" d="M40.85,46A24.8,24.8,0,0,1,40.53,42a25.26,25.26,0,0,1,3-12.27,24.23,24.23,0,0,0-.29-3.39,23.92,23.92,0,0,0,.31-3.94A20.93,20.93,0,0,0,37.19,7,21.15,21.15,0,0,0,21.72.71,21,21,0,0,0,6.3,7,21,21,0,0,0,0,22.43V64.61a10,10,0,0,0,3,7.44,10.21,10.21,0,0,0,7.48,3,10.44,10.44,0,0,0,5.66-1.57A10.35,10.35,0,0,0,21.72,75a21.15,21.15,0,0,0,15.47-6.29,20.9,20.9,0,0,0,5.31-8.62,25.82,25.82,0,0,1-2-10.19A24.92,24.92,0,0,1,40.85,46Zm-2.44-.55a16,16,0,0,1-4.8,11.85A16.24,16.24,0,0,1,21.72,62a5.11,5.11,0,0,1-5.27-5.28,5.13,5.13,0,0,1,5.39-5.35,6,6,0,0,0,5.94-6,5.55,5.55,0,0,0-2-4.33,8.35,8.35,0,0,0-4.64-2,6.23,6.23,0,0,1-3.74-1.7,4.74,4.74,0,0,1-1.53-3.58A4.69,4.69,0,0,1,17.55,30a6.6,6.6,0,0,1,4.17-1.46A6.21,6.21,0,0,0,26,26.68a5.71,5.71,0,0,0,1.77-4.25A5.71,5.71,0,0,0,26,18.18a5.92,5.92,0,0,0-4.29-1.73,6,6,0,0,0-6,6V56.74a5.2,5.2,0,0,1-1.45,3.82A5.19,5.19,0,0,1,10.47,62a5.31,5.31,0,0,1-3.86-1.46,5.07,5.07,0,0,1-1.49-3.82V22.43A16.28,16.28,0,0,1,21.72,5.82a16.21,16.21,0,0,1,11.89,4.77,16,16,0,0,1,4.8,11.84A16,16,0,0,1,33.76,34,15.67,15.67,0,0,1,38.41,45.41Z"/>
        <path class="cls-2" d="M84.21,42a25.36,25.36,0,0,1,2.67-11.68q-.72-5.7-7.55-9.65a26.69,26.69,0,0,0-13.61-3.86,24.41,24.41,0,0,0-17.95,7.24,24.74,24.74,0,0,0-4.27,5.68c0,.18,0,.36,0,.54a21.07,21.07,0,0,1-1.34,7.56,21,21,0,0,1,1.34,7.55,23.92,23.92,0,0,1-.31,3.94,24.78,24.78,0,0,1,.31,3.93,22.48,22.48,0,0,1-1,6.81A25,25,0,0,0,65.72,75.16h7a10,10,0,0,0,7.44-3,10.21,10.21,0,0,0,3-7.48,11.16,11.16,0,0,0-.71-3.93,11.17,11.17,0,0,0,.71-3.94,10.27,10.27,0,0,0-2.36-6.77c1-1.1,1.78-1.86,2.2-2.28a12.05,12.05,0,0,0,1.54-1.48c0-.11,0-.22,0-.33A24.8,24.8,0,0,1,84.21,42Zm-4.64-6L69.49,45.88a5.25,5.25,0,0,1-3.7,1.66A5.13,5.13,0,0,1,62,45.88,5.31,5.31,0,0,1,60.37,42a5.16,5.16,0,0,1,1.73-3.7l5.66-5.59a14,14,0,0,0-2-.16A9.42,9.42,0,0,0,56.27,42,9.25,9.25,0,0,0,59,48.76a9,9,0,0,0,6.69,2.79h7A5,5,0,0,1,78,56.82a5.3,5.3,0,0,1-1.45,3.86,5.08,5.08,0,0,1-3.82,1.49h-7a19.37,19.37,0,0,1-14.33-5.78A19.56,19.56,0,0,1,45.65,42,19.62,19.62,0,0,1,65.72,22,19.55,19.55,0,0,1,80.28,28.1a5.15,5.15,0,0,1,1.57,3.62A5.25,5.25,0,0,1,79.57,36.05Z"/>
        <path class="cls-2" d="M43.21,49.35a23.92,23.92,0,0,0,.31-3.94,21,21,0,0,0-1.34-7.55,21.07,21.07,0,0,0,1.34-7.56c0-.18,0-.36,0-.54a25.26,25.26,0,0,0-3,12.27A24.8,24.8,0,0,0,40.85,46a24.92,24.92,0,0,0-.32,3.94,25.82,25.82,0,0,0,2,10.19,22.48,22.48,0,0,0,1-6.81A24.78,24.78,0,0,0,43.21,49.35Z"/>
        <path class="cls-2" d="M132.14,30.7a25.11,25.11,0,0,0-4.76-6.58,24.44,24.44,0,0,0-18-7.28A24.82,24.82,0,0,0,86.88,30.35,12.28,12.28,0,0,1,87,31.72a9.82,9.82,0,0,1-.79,3.93A10.23,10.23,0,0,1,87,39.59a9.87,9.87,0,0,1-2.48,6.7,24.39,24.39,0,0,0-.28,3.61A24.8,24.8,0,0,0,109.4,75.16a10.14,10.14,0,0,0,7.47-3A10.06,10.06,0,0,0,124.19,75a10.24,10.24,0,0,0,7.44-3,9.94,9.94,0,0,0,3-7.44V63.47a22,22,0,0,1-2.52-10.58Zm-2.6,26a5.11,5.11,0,0,1-1.49,3.82A5.31,5.31,0,0,1,124.19,62a5,5,0,0,1-5.27-5.28V42a9,9,0,0,0-2.8-6.69,9.21,9.21,0,0,0-6.72-2.76A9.42,9.42,0,0,0,100,42a9.25,9.25,0,0,0,2.76,6.73,9,9,0,0,0,6.69,2.79A5.3,5.3,0,0,1,113.25,53a5.07,5.07,0,0,1,1.5,3.81,5.12,5.12,0,0,1-5.35,5.35,19.37,19.37,0,0,1-14.33-5.78A19.56,19.56,0,0,1,89.33,42,19.62,19.62,0,0,1,109.4,22a19.58,19.58,0,0,1,14.36,5.74A19.37,19.37,0,0,1,129.54,42Zm-16.92-9.83a13.28,13.28,0,0,0-2.67-.4,6.93,6.93,0,0,1-2.44-.55,4.5,4.5,0,0,1,1.89-.39A4.39,4.39,0,0,1,112.62,46.91Z"/>
        <path class="cls-2" d="M86.18,35.65A9.82,9.82,0,0,0,87,31.72a12.28,12.28,0,0,0-.09-1.37A25.36,25.36,0,0,0,84.21,42,24.8,24.8,0,0,0,84.53,46c0,.11,0,.22,0,.33A9.87,9.87,0,0,0,87,39.59,10.23,10.23,0,0,0,86.18,35.65Z"/>
        <path class="cls-2" d="M176.28,27.62c0-.08,0-.15,0-.23A10.09,10.09,0,0,0,165.9,17H153a10.3,10.3,0,0,0-10.47-9.52,10,10,0,0,0-7.44,3,10.18,10.18,0,0,0-3,7.47V30.7A25.31,25.31,0,0,1,134.66,42V63.47a21.74,21.74,0,0,0,3.86,5.16,22.48,22.48,0,0,0,31.4,0,22.43,22.43,0,0,0,3.38-4.38V38.88A21.57,21.57,0,0,1,176.28,27.62Zm-28.4,5.12V45a6.32,6.32,0,0,0,6.38,6.37,6,6,0,0,0,4.48-1.85A6.2,6.2,0,0,0,160.55,45v-.71a5,5,0,0,1,1.54-3.78A5.26,5.26,0,0,1,165.9,39a5.11,5.11,0,0,1,5.28,5.27V45a16.54,16.54,0,0,1-4.84,12.12A16.94,16.94,0,0,1,137.26,45V17.94a5.27,5.27,0,0,1,1.45-3.85,5.09,5.09,0,0,1,3.82-1.5,5.12,5.12,0,0,1,5.35,5.35v4.18h18a5,5,0,0,1,5.28,5.27q0,5.36-5.28,5.35Zm7.4,13a1.1,1.1,0,0,1-1,.55,1.31,1.31,0,0,1-1.11-.55Z"/>
        <path class="cls-2" d="M132.14,30.7V52.89a22,22,0,0,0,2.52,10.58V42A25.31,25.31,0,0,0,132.14,30.7Z"/>
        <path class="cls-2" d="M224.38,75A4.85,4.85,0,0,1,223,77.88a5.29,5.29,0,0,1-3.85,1.45h-.32a16.55,16.55,0,0,1-17-17l-.08-23.45a6.32,6.32,0,0,0-6.29-6.3,6.25,6.25,0,0,0-4.53,1.81A6.06,6.06,0,0,0,189,38.88V56.74a5.11,5.11,0,0,1-1.49,3.82A5.32,5.32,0,0,1,183.69,62a5,5,0,0,1-5.27-5.28V38.88A16.28,16.28,0,0,1,183.3,26.8a17.6,17.6,0,0,1,24.24,0,16.32,16.32,0,0,1,4.88,12.08V62.33a6.14,6.14,0,0,0,1.85,4.53,6.77,6.77,0,0,0,.88.74,11.89,11.89,0,0,1-.37-3V28a22,22,0,0,0-3.66-4.78,22.52,22.52,0,0,0-31.41,0,22.53,22.53,0,0,0-3.43,4.4,12.64,12.64,0,0,1-.62,3.86,11.45,11.45,0,0,1,.63,3.78,12.55,12.55,0,0,1-.86,4.72,11.15,11.15,0,0,1,.86,4.33V45a22.7,22.7,0,0,1-.39,4.25,10.87,10.87,0,0,1,.39,2.91v.71a21.73,21.73,0,0,1-3,11.32v.4A10.09,10.09,0,0,0,183.69,75a10.22,10.22,0,0,0,7.48-3,10,10,0,0,0,3-7.44V46.75c0-.79.42-1.18,1.26-1.18a1,1,0,0,1,1.18,1.18l.08,19.75v3.7A21.19,21.19,0,0,0,203.13,86a22,22,0,0,0,16,6.3,10.28,10.28,0,0,0,7.43-2.95,10,10,0,0,0,3-7.44,10.77,10.77,0,0,0-.7-3.94,10.66,10.66,0,0,0,.7-3.88,10.74,10.74,0,0,1-4.4.89C224.9,75,224.64,75,224.38,75Z"/>
        <path class="cls-2" d="M176.29,52.18a10.87,10.87,0,0,0-.39-2.91,22.7,22.7,0,0,0,.39-4.25v-.71a11.15,11.15,0,0,0-.86-4.33,12.55,12.55,0,0,0,.86-4.72,11.45,11.45,0,0,0-.63-3.78,12.64,12.64,0,0,0,.62-3.86,21.57,21.57,0,0,0-3,11.26V64.21a21.73,21.73,0,0,0,3-11.32Z"/>
        <path class="cls-2" d="M233,11.25a10.42,10.42,0,0,1,1.8-6.09,12.86,12.86,0,0,0-1.45-1.74,11.6,11.6,0,0,0-16.45,0,11.25,11.25,0,0,0-3.42,8.23,10.94,10.94,0,0,0,.71,3.93,11,11,0,0,0-.71,3.94,11.57,11.57,0,0,0,1.41,5.59,14.59,14.59,0,0,0-.15,2.12V28a21.66,21.66,0,0,1,2.75,10.88V62.33a1.11,1.11,0,0,0,1.26,1.26,10.69,10.69,0,0,1,7.71,3,10,10,0,0,1,3.07,7.52v0a10.31,10.31,0,0,0,3-2.06,9.76,9.76,0,0,0,1.72-2.21A10.53,10.53,0,0,1,233,64.61Zm-2.52,45.49a5.08,5.08,0,0,1-1.5,3.82A5.3,5.3,0,0,1,225.17,62a5,5,0,0,1-5.28-5.28V27.23A5,5,0,0,1,225.17,22c3.56,0,5.35,1.76,5.35,5.27Zm-.75-40.49a6.46,6.46,0,0,1-9.21,0,6.3,6.3,0,0,1-1.93-4.6A6.32,6.32,0,0,1,220.56,7a6.48,6.48,0,0,1,9.21,0,6.32,6.32,0,0,1,1.93,4.61A6.3,6.3,0,0,1,229.77,16.25Z"/>
        <path class="cls-2" d="M224.38,75a6.55,6.55,0,0,0,.08-.91,5.12,5.12,0,0,0-5.35-5.35h-.32a6.15,6.15,0,0,1-3.64-1.11,9.71,9.71,0,0,0,2.58,4.45A9.93,9.93,0,0,0,224.38,75Z"/>
        <path class="cls-2" d="M226.5,66.54a10.69,10.69,0,0,0-7.71-3,1.11,1.11,0,0,1-1.26-1.26V38.88A21.66,21.66,0,0,0,214.78,28V64.61a11.89,11.89,0,0,0,.37,3,6.15,6.15,0,0,0,3.64,1.11h.32a5.12,5.12,0,0,1,5.35,5.35,6.55,6.55,0,0,1-.08.91c.26,0,.52,0,.79,0a10.74,10.74,0,0,0,4.4-.89v0A10,10,0,0,0,226.5,66.54Z"/>
        <path class="cls-2" d="M282.86,75a5,5,0,0,1-1.42,2.91,5.31,5.31,0,0,1-3.86,1.45h-.31a16.67,16.67,0,0,1-17-17V53.05a6,6,0,0,0-1.85-4.49,6.24,6.24,0,0,0-4.53-1.81h-5.11v10a5.08,5.08,0,0,1-1.5,3.82A5.31,5.31,0,0,1,243.42,62a5,5,0,0,1-5.27-5.28V11.25a5.26,5.26,0,0,1,1.46-3.85,5.07,5.07,0,0,1,3.81-1.5,5.14,5.14,0,0,1,5.36,5.35V33.53l3.38.08a6.25,6.25,0,0,0,6.37-6.22q0-5.43,5.28-5.43a5.27,5.27,0,0,1,3.85,1.45,5.11,5.11,0,0,1,1.5,3.82,16.34,16.34,0,0,1-5.2,12.2,16.1,16.1,0,0,1,6.93,13.62v9.28a6.18,6.18,0,0,0,1.85,4.53,7,7,0,0,0,.79.67,11.85,11.85,0,0,1-.36-2.92V22.37a9.73,9.73,0,0,0-1.89-2.58,10.22,10.22,0,0,0-7.47-2.95q-8,0-9.92,7V11.25A10.22,10.22,0,0,0,243.42.79a10,10,0,0,0-7.43,3,10.65,10.65,0,0,0-1.15,1.38,11.16,11.16,0,0,1,2,6.49,10.94,10.94,0,0,1-.71,3.93,11,11,0,0,1,.71,3.94A11.59,11.59,0,0,1,235.48,25a15.11,15.11,0,0,1,.15,2.2V64.61a10.33,10.33,0,0,1-1.31,5.23A9.53,9.53,0,0,0,236,72.05a10,10,0,0,0,7.43,3,10.21,10.21,0,0,0,7.48-3,10,10,0,0,0,3-7.44V59.73c.84,0,1.26.4,1.26,1.19V70.2A21.13,21.13,0,0,0,261.64,86a21.93,21.93,0,0,0,15.94,6.34,10.26,10.26,0,0,0,7.48-2.95,10,10,0,0,0,3-7.44,10.78,10.78,0,0,0-.71-3.94,11.12,11.12,0,0,0,.71-3.89,11.08,11.08,0,0,1-4.49.9C283.32,75,283.09,75,282.86,75Z"/>
        <path class="cls-2" d="M235.63,27.23a15.11,15.11,0,0,0-.15-2.2,11.59,11.59,0,0,0,1.33-5.51,11,11,0,0,0-.71-3.94,10.94,10.94,0,0,0,.71-3.93,11.16,11.16,0,0,0-2-6.49,10.42,10.42,0,0,0-1.8,6.09V64.61a10.53,10.53,0,0,0,1.28,5.23,10.33,10.33,0,0,0,1.31-5.23Z"/>
        <path class="cls-2" d="M326.34,66.54a10.59,10.59,0,0,0-7.68-3,1.11,1.11,0,0,1-1.26-1.26V38.88a21.84,21.84,0,0,0-22.11-22H294V11.1a10,10,0,0,0-3-7.44A10.22,10.22,0,0,0,283.56.71,10.09,10.09,0,0,0,273.17,11.1V22.37a10.54,10.54,0,0,1,1.1,4.86,21.66,21.66,0,0,1-.47,4.64,11,11,0,0,1,.47,3.23,21.9,21.9,0,0,1-1.1,7A21.37,21.37,0,0,1,276,53.05v9.28a1.11,1.11,0,0,0,1.26,1.26,10.72,10.72,0,0,1,7.71,3,10,10,0,0,1,3.07,7.52v0a10.29,10.29,0,0,0,3-2,10,10,0,0,0,3-7.44V46.75c0-.79.42-1.18,1.26-1.18a1,1,0,0,1,1.18,1.18l.08,23.45A21.21,21.21,0,0,0,303,86a21.89,21.89,0,0,0,16,6.34,10.09,10.09,0,0,0,10.39-10.39,10.78,10.78,0,0,0-.71-3.94,10.69,10.69,0,0,0,.71-3.93A10.06,10.06,0,0,0,326.34,66.54Zm-3.55,11.34A5.15,5.15,0,0,1,319,79.33h-.32a16.67,16.67,0,0,1-17-17l-.08-23.45a6.32,6.32,0,0,0-6.29-6.3,6.26,6.26,0,0,0-4.53,1.81,6.06,6.06,0,0,0-1.85,4.49V56.74a5.11,5.11,0,0,1-1.49,3.82A5.31,5.31,0,0,1,283.56,62a5,5,0,0,1-5.27-5.28V11.1a5.16,5.16,0,0,1,1.45-3.82,5.18,5.18,0,0,1,3.82-1.46,5.31,5.31,0,0,1,3.86,1.46,5.11,5.11,0,0,1,1.49,3.82v12A17.18,17.18,0,0,1,295.29,22a16.53,16.53,0,0,1,12.12,4.84,16.32,16.32,0,0,1,4.88,12.08V62.33a6.32,6.32,0,0,0,6.37,6.38H319a5.1,5.1,0,0,1,3.81,1.49,5.31,5.31,0,0,1,1.46,3.86A5.19,5.19,0,0,1,322.79,77.88Z"/>
        <path class="cls-2" d="M282.86,75a6.59,6.59,0,0,0,.07-.91,5.11,5.11,0,0,0-5.35-5.35h-.31a6.19,6.19,0,0,1-3.74-1.18A10,10,0,0,0,282.86,75Z"/>
        <path class="cls-2" d="M274.27,35.1a11,11,0,0,0-.47-3.23,21.66,21.66,0,0,0,.47-4.64,10.54,10.54,0,0,0-1.1-4.86V42.11A21.9,21.9,0,0,0,274.27,35.1Z"/>
        <path class="cls-2" d="M285,66.54a10.72,10.72,0,0,0-7.71-3A1.11,1.11,0,0,1,276,62.33V53.05a21.37,21.37,0,0,0-2.84-10.94v22.5a11.85,11.85,0,0,0,.36,2.92,6.19,6.19,0,0,0,3.74,1.18h.31a5.11,5.11,0,0,1,5.35,5.35,6.59,6.59,0,0,1-.07.91c.23,0,.46,0,.7,0a11.08,11.08,0,0,0,4.49-.9v0A10,10,0,0,0,285,66.54Z"/>
      </g>
    </g>
  </g>
</svg>
